G75*
G70*
%OFA0B0*%
%FSLAX24Y24*%
%IPPOS*%
%LPD*%
%AMOC8*
5,1,8,0,0,1.08239X$1,22.5*
%
%ADD10C,0.0000*%
%ADD11R,0.0106X0.0591*%
%ADD12R,0.0591X0.0106*%
%ADD13R,0.0512X0.0591*%
%ADD14R,0.0433X0.0394*%
%ADD15R,0.0394X0.0433*%
%ADD16R,0.0787X0.0591*%
%ADD17R,0.0787X0.1496*%
%ADD18R,0.0787X0.0394*%
%ADD19R,0.0591X0.0394*%
%ADD20R,0.0394X0.0197*%
%ADD21R,0.1200X0.0197*%
%ADD22R,0.1000X0.1000*%
%ADD23R,0.0551X0.0394*%
%ADD24R,0.0945X0.1102*%
%ADD25R,0.1213X0.0500*%
%ADD26R,0.0500X0.1213*%
%ADD27R,0.0630X0.0591*%
%ADD28R,0.0591X0.0512*%
%ADD29C,0.0500*%
D10*
X000980Y000980D02*
X000980Y020271D01*
X020271Y020271D01*
X020271Y000980D01*
X000980Y000980D01*
X002638Y015441D02*
X002640Y015471D01*
X002646Y015501D01*
X002655Y015530D01*
X002668Y015557D01*
X002685Y015582D01*
X002704Y015605D01*
X002727Y015626D01*
X002752Y015643D01*
X002778Y015657D01*
X002807Y015667D01*
X002836Y015674D01*
X002866Y015677D01*
X002897Y015676D01*
X002927Y015671D01*
X002956Y015662D01*
X002983Y015650D01*
X003009Y015635D01*
X003033Y015616D01*
X003054Y015594D01*
X003072Y015570D01*
X003087Y015543D01*
X003098Y015515D01*
X003106Y015486D01*
X003110Y015456D01*
X003110Y015426D01*
X003106Y015396D01*
X003098Y015367D01*
X003087Y015339D01*
X003072Y015312D01*
X003054Y015288D01*
X003033Y015266D01*
X003009Y015247D01*
X002983Y015232D01*
X002956Y015220D01*
X002927Y015211D01*
X002897Y015206D01*
X002866Y015205D01*
X002836Y015208D01*
X002807Y015215D01*
X002778Y015225D01*
X002752Y015239D01*
X002727Y015256D01*
X002704Y015277D01*
X002685Y015300D01*
X002668Y015325D01*
X002655Y015352D01*
X002646Y015381D01*
X002640Y015411D01*
X002638Y015441D01*
X002638Y018574D02*
X002640Y018604D01*
X002646Y018634D01*
X002655Y018663D01*
X002668Y018690D01*
X002685Y018715D01*
X002704Y018738D01*
X002727Y018759D01*
X002752Y018776D01*
X002778Y018790D01*
X002807Y018800D01*
X002836Y018807D01*
X002866Y018810D01*
X002897Y018809D01*
X002927Y018804D01*
X002956Y018795D01*
X002983Y018783D01*
X003009Y018768D01*
X003033Y018749D01*
X003054Y018727D01*
X003072Y018703D01*
X003087Y018676D01*
X003098Y018648D01*
X003106Y018619D01*
X003110Y018589D01*
X003110Y018559D01*
X003106Y018529D01*
X003098Y018500D01*
X003087Y018472D01*
X003072Y018445D01*
X003054Y018421D01*
X003033Y018399D01*
X003009Y018380D01*
X002983Y018365D01*
X002956Y018353D01*
X002927Y018344D01*
X002897Y018339D01*
X002866Y018338D01*
X002836Y018341D01*
X002807Y018348D01*
X002778Y018358D01*
X002752Y018372D01*
X002727Y018389D01*
X002704Y018410D01*
X002685Y018433D01*
X002668Y018458D01*
X002655Y018485D01*
X002646Y018514D01*
X002640Y018544D01*
X002638Y018574D01*
D11*
X006718Y011831D03*
X006915Y011831D03*
X007111Y011831D03*
X007308Y011831D03*
X007505Y011831D03*
X007702Y011831D03*
X007899Y011831D03*
X008096Y011831D03*
X008293Y011831D03*
X008489Y011831D03*
X008686Y011831D03*
X008883Y011831D03*
X009080Y011831D03*
X009277Y011831D03*
X009474Y011831D03*
X009671Y011831D03*
X009867Y011831D03*
X010064Y011831D03*
X010261Y011831D03*
X010458Y011831D03*
X010655Y011831D03*
X010852Y011831D03*
X011049Y011831D03*
X011245Y011831D03*
X011442Y011831D03*
X011442Y005729D03*
X011245Y005729D03*
X011049Y005729D03*
X010852Y005729D03*
X010655Y005729D03*
X010458Y005729D03*
X010261Y005729D03*
X010064Y005729D03*
X009867Y005729D03*
X009671Y005729D03*
X009474Y005729D03*
X009277Y005729D03*
X009080Y005729D03*
X008883Y005729D03*
X008686Y005729D03*
X008489Y005729D03*
X008293Y005729D03*
X008096Y005729D03*
X007899Y005729D03*
X007702Y005729D03*
X007505Y005729D03*
X007308Y005729D03*
X007111Y005729D03*
X006915Y005729D03*
X006718Y005729D03*
D12*
X006029Y006418D03*
X006029Y006615D03*
X006029Y006811D03*
X006029Y007008D03*
X006029Y007205D03*
X006029Y007402D03*
X006029Y007599D03*
X006029Y007796D03*
X006029Y007993D03*
X006029Y008189D03*
X006029Y008386D03*
X006029Y008583D03*
X006029Y008780D03*
X006029Y008977D03*
X006029Y009174D03*
X006029Y009371D03*
X006029Y009567D03*
X006029Y009764D03*
X006029Y009961D03*
X006029Y010158D03*
X006029Y010355D03*
X006029Y010552D03*
X006029Y010749D03*
X006029Y010945D03*
X006029Y011142D03*
X012131Y011142D03*
X012131Y010945D03*
X012131Y010749D03*
X012131Y010552D03*
X012131Y010355D03*
X012131Y010158D03*
X012131Y009961D03*
X012131Y009764D03*
X012131Y009567D03*
X012131Y009371D03*
X012131Y009174D03*
X012131Y008977D03*
X012131Y008780D03*
X012131Y008583D03*
X012131Y008386D03*
X012131Y008189D03*
X012131Y007993D03*
X012131Y007796D03*
X012131Y007599D03*
X012131Y007402D03*
X012131Y007205D03*
X012131Y007008D03*
X012131Y006811D03*
X012131Y006615D03*
X012131Y006418D03*
D13*
X014306Y007880D03*
X015054Y007880D03*
X010504Y002730D03*
X009756Y002730D03*
X009756Y001830D03*
X010504Y001830D03*
X006454Y001880D03*
X005706Y001880D03*
X005706Y002780D03*
X006454Y002780D03*
X007906Y017180D03*
X008654Y017180D03*
D14*
X008365Y013880D03*
X007695Y013880D03*
X007695Y012980D03*
X008365Y012980D03*
X014445Y008780D03*
X015115Y008780D03*
X013480Y006465D03*
X013480Y005795D03*
X006415Y003630D03*
X005745Y003630D03*
D15*
X005030Y006345D03*
X005030Y007015D03*
X005080Y008145D03*
X005080Y008815D03*
X005030Y010495D03*
X005030Y011165D03*
X004665Y013130D03*
X003995Y013130D03*
X007695Y014730D03*
X008365Y014730D03*
X008565Y016280D03*
X007895Y016280D03*
X007895Y018430D03*
X008565Y018430D03*
X008565Y019330D03*
X007895Y019330D03*
X014445Y012430D03*
X015115Y012430D03*
X015115Y011730D03*
X014445Y011730D03*
X014445Y011030D03*
X015115Y011030D03*
X015115Y010330D03*
X014445Y010330D03*
X014445Y009630D03*
X015115Y009630D03*
X008930Y004715D03*
X008930Y004045D03*
X003815Y007130D03*
X003145Y007130D03*
X002365Y007130D03*
X002365Y006430D03*
X001695Y006430D03*
X001695Y007130D03*
X017995Y001730D03*
X018665Y001730D03*
D16*
X002140Y001774D03*
X002140Y002680D03*
X002140Y003586D03*
D17*
X004620Y002680D03*
D18*
X003030Y013530D03*
X003030Y019780D03*
D19*
X006830Y019780D03*
X006830Y013880D03*
D20*
X007230Y015850D03*
X007230Y016290D03*
X007230Y016720D03*
X007230Y017160D03*
X007230Y017590D03*
X007230Y018030D03*
X007230Y018470D03*
X007230Y018910D03*
X007230Y019330D03*
D21*
X016880Y017712D03*
X016880Y017319D03*
X016880Y016925D03*
X016880Y016531D03*
X016880Y016137D03*
X016880Y015744D03*
X016880Y015350D03*
X016880Y014956D03*
X016880Y014563D03*
X016880Y014169D03*
X016880Y013775D03*
X016880Y013382D03*
X016880Y012988D03*
X016880Y012594D03*
X016880Y012200D03*
X016880Y011807D03*
X016880Y011413D03*
X016880Y011019D03*
X016880Y010626D03*
X016880Y010232D03*
X016880Y009838D03*
X016880Y009445D03*
X016880Y009051D03*
X016880Y008657D03*
X016880Y008263D03*
X016880Y007870D03*
X016880Y007476D03*
X016880Y007082D03*
X016880Y006689D03*
X016880Y006295D03*
X016880Y005901D03*
X016880Y005508D03*
X016880Y005114D03*
X016880Y004720D03*
X016880Y004326D03*
X016880Y003933D03*
X016880Y003539D03*
D22*
X016880Y002626D03*
X016880Y018626D03*
D23*
X014247Y006504D03*
X014247Y005756D03*
X015113Y006130D03*
D24*
X004620Y005030D03*
X002140Y005030D03*
D25*
X001980Y007980D03*
X001980Y008980D03*
X001980Y009980D03*
X001980Y010980D03*
X001980Y011980D03*
X003980Y011980D03*
X003980Y010980D03*
X003980Y009980D03*
X003980Y008980D03*
X003980Y007980D03*
D26*
X011480Y003980D03*
X012480Y003980D03*
X013480Y003980D03*
X014480Y003980D03*
X015480Y003980D03*
X015480Y001980D03*
X014480Y001980D03*
X013480Y001980D03*
X012480Y001980D03*
X011480Y001980D03*
X011480Y016980D03*
X012480Y016980D03*
X013480Y016980D03*
X014480Y016980D03*
X015480Y016980D03*
X015480Y018980D03*
X014480Y018980D03*
X013480Y018980D03*
X012480Y018980D03*
X011480Y018980D03*
D27*
X008772Y002683D03*
X008772Y001777D03*
X007788Y001777D03*
X007788Y002683D03*
D28*
X015480Y015156D03*
X015480Y015904D03*
D29*
X005880Y005480D03*
X005980Y004730D03*
X008030Y003680D03*
X008280Y004630D03*
X009680Y003530D03*
X009830Y004180D03*
X010530Y004180D03*
X010780Y004880D03*
X009980Y004880D03*
X011830Y005130D03*
M02*
