%
M48
M72
T01C0.0118
T02C0.0472
%
T01
X3030Y1580
X3480Y1580
X3930Y2680
X3930Y3030
X3930Y3380
X3930Y3730
X3930Y4080
X3580Y4080
X3580Y3730
X3580Y3380
X3580Y3030
X4280Y3730
X4630Y3730
X4630Y4080
X4280Y4080
X4980Y4080
X4980Y3730
X6380Y5080
X6780Y5080
X6780Y4730
X6780Y4380
X7180Y4380
X7580Y4380
X7580Y3930
X8380Y4030
X8630Y3580
X9030Y3580
X8880Y5130
X8380Y5130
X9080Y6780
X7080Y6780
X7080Y8780
X5430Y8880
X5430Y9280
X5080Y9480
X5080Y9830
X5399Y10011
X4580Y10530
X4580Y11480
X5130Y12580
X5380Y12830
X5380Y13180
X6030Y14130
X6330Y14380
X5780Y14930
X5530Y14630
X5280Y15180
X5030Y15480
X6280Y15180
X6680Y15180
X5980Y16580
X5980Y16980
X6730Y17580
X6730Y17980
X7680Y17830
X8080Y17680
X8680Y17830
X10180Y19430
X11480Y18180
X11480Y17780
X12480Y17780
X12480Y18180
X13480Y18180
X13480Y17780
X14480Y17780
X14480Y18180
X15480Y18180
X15480Y17780
X14980Y19430
X13980Y19430
X12980Y19430
X11980Y19430
X14880Y15080
X12655Y12855
X11780Y12880
X11280Y13030
X10530Y12830
X10180Y12830
X9830Y12530
X9630Y12830
X8830Y12980
X8230Y12480
X7780Y12530
X7230Y13080
X7330Y13430
X6230Y12030
X5930Y11780
X7080Y10780
X9080Y10780
X9080Y8780
X11080Y8780
X12780Y9580
X12780Y9930
X13130Y10180
X12980Y10530
X12830Y10880
X12830Y11230
X13880Y11230
X13880Y10880
X13880Y10430
X13880Y10080
X13880Y9730
X13880Y9380
X13880Y9030
X13530Y8480
X13030Y8480
X13080Y7930
X13480Y7930
X13480Y7430
X13880Y7430
X14680Y6880
X15030Y7180
X15130Y5580
X14830Y5580
X15480Y5130
X13980Y4180
X13980Y3730
X13480Y2980
X14480Y2980
X15480Y2980
X16130Y2830
X17680Y2830
X17680Y2480
X17680Y3530
X17680Y3930
X17680Y4330
X17680Y4730
X17680Y5880
X17680Y6280
X17680Y6680
X17680Y7080
X17680Y7480
X17680Y7880
X17680Y8280
X17680Y8680
X17680Y9080
X17680Y9480
X19730Y9830
X17680Y12180
X17680Y12580
X17680Y12980
X17680Y13380
X17680Y14180
X17680Y14580
X17680Y14980
X17680Y15380
X17680Y16130
X17680Y16530
X17980Y16930
X17980Y17330
X17980Y17730
X18880Y19430
X19730Y19430
X19730Y14480
X19330Y13180
X13880Y11580
X11230Y11230
X11080Y10780
X11080Y6780
X13030Y6080
X12030Y3980
X11480Y3130
X11830Y2980
X12480Y2980
X11980Y1430
X12980Y1430
X13980Y1430
X14980Y1430
X19330Y1730
X19730Y1730
X19730Y5630
X8830Y14730
X3430Y16580
X3430Y16980
X1530Y16980
X1530Y16580
X1430Y19380
X1980Y12880
X1980Y12580
X3080Y12830
X3380Y12580
X2380Y11480
X1530Y11480
X1530Y10480
X2380Y10480
X2380Y9480
X1530Y9480
X1530Y8480
X2380Y8480
X3980Y9480
X4580Y8480
X4580Y7030
X4580Y6230
X2330Y4180
X1980Y4180
X1980Y5930
X6930Y1430
X7280Y1430
T02
X2874Y15441
X2874Y18574
M30
